<?xml version="1.0" encoding="UTF-8"?>
<svg id="Layer_1" data-name="Layer 1" xmlns="http://www.w3.org/2000/svg" width="240" height="338" viewBox="0 0 240 338">
  <defs>
    <style>
      .cls-1 {
        fill: #fff;
      }

      .cls-2 {
        fill: #29abe2;
      }
    </style>
  </defs>
  <path d="M0,58v220.22c0,5.4,4.38,9.78,9.78,9.78H28v43.76c0,5.52,3.92,7.82,8.72,5.11l84.88-48.87h108.62c5.4,0,9.78-4.38,9.78-9.78V58H0Z"/>
  <path d="M0,50H240V11.51c0-6.36-5.14-11.51-11.48-11.51H11.48C5.14,0,0,5.15,0,11.51V50Z"/>
  <path class="cls-1" d="M36.5,11.85v10.15c0,1.66-1.34,3-3,3s-3-1.34-3-3V11.85c-6.01,1.37-10.5,6.73-10.5,13.15,0,7.46,6.04,13.5,13.5,13.5s13.5-6.04,13.5-13.5c0-6.42-4.49-11.79-10.5-13.15Z"/>
  <rect class="cls-1" x="160" y="16" width="60" height="18" rx="9" ry="9"/>
  <g>
    <circle class="cls-1" cx="120" cy="173" r="82.5"/>
    <path class="cls-2" d="M183.17,183.7c-6.11,0-11.79-1.86-16.5-5.04-4.71,3.18-10.39,5.04-16.5,5.04s-11.79-1.86-16.5-5.04c-4.71,3.18-10.39,5.04-16.5,5.04s-11.79-1.86-16.5-5.04c-4.71,3.18-10.39,5.04-16.5,5.04s-11.79-1.86-16.5-5.04c-4.04,2.73-8.79,4.48-13.92,4.92,5.08,32.02,32.8,56.51,66.25,56.51s61.21-24.52,66.26-56.57c-1.02,.11-2.05,.18-3.1,.18Z"/>
  </g>
  <path class="cls-1" d="M73.5,11.85v10.15c0,1.66-1.34,3-3,3s-3-1.34-3-3V11.85c-6.01,1.37-10.5,6.73-10.5,13.15,0,7.46,6.04,13.5,13.5,13.5s13.5-6.04,13.5-13.5c0-6.42-4.49-11.79-10.5-13.15Z"/>
</svg>