<?xml version="1.0" encoding="UTF-8"?>
<svg id="Layer_1" data-name="Layer 1" xmlns="http://www.w3.org/2000/svg" width="240" height="338" viewBox="0 0 240 338">
  <defs>
    <style>
      .cls-1 {
        fill: #29abe2;
      }
    </style>
  </defs>
  <path d="M0,58v220.22c0,5.4,4.38,9.78,9.78,9.78H28v43.76c0,5.52,3.92,7.82,8.72,5.11l84.88-48.87h108.62c5.4,0,9.78-4.38,9.78-9.78V58H0ZM120,255.5c-45.56,0-82.5-36.94-82.5-82.5s36.94-82.5,82.5-82.5,82.5,36.94,82.5,82.5-36.94,82.5-82.5,82.5Z"/>
  <path class="cls-1" d="M183.17,183.7c-6.11,0-11.79-1.86-16.5-5.04-4.71,3.18-10.39,5.04-16.5,5.04s-11.79-1.86-16.5-5.04c-4.71,3.18-10.39,5.04-16.5,5.04s-11.79-1.86-16.5-5.04c-4.71,3.18-10.39,5.04-16.5,5.04s-11.79-1.86-16.5-5.04c-4.04,2.73-8.79,4.48-13.92,4.92,5.08,32.02,32.8,56.51,66.25,56.51s61.21-24.52,66.26-56.57c-1.02,.11-2.05,.18-3.1,.18Z"/>
  <path d="M228.52,0H11.48C5.14,0,0,5.15,0,11.51V50H240V11.51c0-6.36-5.14-11.51-11.48-11.51ZM33.5,38.5c-7.46,0-13.5-6.04-13.5-13.5,0-6.42,4.49-11.79,10.5-13.15v10.15c0,1.66,1.34,3,3,3s3-1.34,3-3V11.85c6.01,1.37,10.5,6.73,10.5,13.15,0,7.46-6.04,13.5-13.5,13.5Zm37,0c-7.46,0-13.5-6.04-13.5-13.5,0-6.42,4.49-11.79,10.5-13.15v10.15c0,1.66,1.34,3,3,3s3-1.34,3-3V11.85c6.01,1.37,10.5,6.73,10.5,13.15,0,7.46-6.04,13.5-13.5,13.5Zm140.49-4.5h-42c-4.97,0-9-4.03-9-9s4.03-9,9-9h42c4.97,0,9,4.03,9,9s-4.03,9-9,9Z"/>
</svg>