<?xml version="1.0" encoding="utf-8"?>
<!-- Generator: Adobe Illustrator 26.5.0, SVG Export Plug-In . SVG Version: 6.00 Build 0)  -->
<svg version="1.1" id="Layer_1" xmlns="http://www.w3.org/2000/svg" xmlns:xlink="http://www.w3.org/1999/xlink" x="0px" y="0px"
	 viewBox="0 0 39 11" style="enable-background:new 0 0 39 11;" xml:space="preserve">
<style type="text/css">
	.st0{fill:#FFFFFF;}
	.st1{fill:#2A2A2A;}
</style>
<path class="st0" d="M2.9,11c1.7,0,3.3-0.5,4.6-1.5l8.7-6.5c2-1.5,4.6-1.5,6.6,0l8.7,6.5c1.3,1,3,1.5,4.6,1.5H2.9z"/>
<path class="st1" d="M34.6,9c-1.1,0-2.1-0.3-3-1l-7.9-5.9c-2.5-1.9-5.9-1.9-8.4,0L7.4,8c-0.9,0.6-1.9,1-3,1H0v2h4.4
	c1.5,0,3-0.5,4.2-1.4l7.9-5.9c1.8-1.3,4.2-1.3,6,0l7.9,5.9c1.2,0.9,2.7,1.4,4.2,1.4H39V9H34.6z"/>
</svg>
